# xmcd
#
# Track frame offsets: 
#        150
#        26371
#        49809
#        81388
#        100428
#        125485
#        140788
#        161592
#        184975
#        202311
#        218769
#        249560
#        287003
#        319025
#
# Disc length: 4539 seconds
#
# Revision: 0
# Processed by: cddbd v1.5.2PL0 Copyright (c) Steve Scherf et al.
# Submitted via: ExactAudioCopy v0.95b4
#
DISCID=d911b90e
DTITLE=Wayne Henderson, Steve Kilby, Steve Lewis and Randy Greer - The G
DTITLE=uitar Extravaganza
DYEAR=2003
DGENRE=Bluegrass
TTITLE0=Billy in the Lowground
TTITLE1=Blackberry Blossom
TTITLE2=Nothin' to It
TTITLE3=Nine Pound Hammer
TTITLE4=Little Rock Getaway
TTITLE5=Wildwood Flower
TTITLE6=Alabama Jubilee
TTITLE7=Forked Deer
TTITLE8=Gonna Lay Down My Old Guitar
TTITLE9=Freight-Train
TTITLE10=Bye Bye Blues
TTITLE11=Jerusalem Ridge
TTITLE12=Cherokee Shuffle
TTITLE13=Sweet Georgia Brown
EXTD=
EXTT0=
EXTT1=
EXTT2=
EXTT3=
EXTT4=
EXTT5=
EXTT6=
EXTT7=
EXTT8=
EXTT9=
EXTT10=
EXTT11=
EXTT12=
EXTT13=
PLAYORDER=
